<?xml version="1.0" encoding="UTF-8" standalone="no"?>
<svg xmlns="http://www.w3.org/2000/svg" xmlns:xlink="http://www.w3.org/1999/xlink" class="card" face="AS" height="1in"
     preserveAspectRatio="none" viewBox="-30 -42 60 74" width="1in">
    <defs>
        <symbol id="SSA" viewBox="-600 -600 1200 1200" preserveAspectRatio="xMinYMid">
            <path d="M0 -500C350 -250 460 -100 460 100C460 300 260 340 210 340C110 340 55 285 100 300L130 500L-130 500L-100 300C-55 285 -110 340 -210 340C-260 340 -460 300 -460 100C-460 -100 -350 -250 0 -500Z"
                  fill="black"></path>
        </symbol>
        <rect id="XSA" width="104" height="200" x="-52" y="-100"></rect>
    </defs>
    <rect width="239" height="335" x="-119.5" y="-167.5" rx="12" ry="12" fill="white" stroke="black"></rect>
    <use xlink:href="#SSA" height="40" width="40" x="-20" y="-20"></use>

</svg>
